<?xml version="1.0" encoding="utf-8"?>
<!-- Generator: Adobe Illustrator 25.4.1, SVG Export Plug-In . SVG Version: 6.00 Build 0)  -->
<svg version="1.1" id="Capa_1" xmlns="http://www.w3.org/2000/svg" xmlns:xlink="http://www.w3.org/1999/xlink" x="0px" y="0px"
	 viewBox="0 0 459 412.6" style="enable-background:new 0 0 459 412.6;" xml:space="preserve">
<style type="text/css">
	.st0{fill:#231F16;}
	.st1{fill:#35434C;}
	.st2{fill:#ECECEC;}
</style>
<polygon class="st0" points="872.4,324.3 872.4,369.5 937.5,369.5 1031.4,275.6 921.2,275.6 "/>
<g>
	
		<text transform="matrix(1 0 0 1 667.4136 144.8164)" class="st0" style="font-family:'SuisseIntl-Regular'; font-size:145.342px; letter-spacing:-4;">vinche</text>
	
		<text transform="matrix(1 0 0 1 667.4136 256.8164)" class="st0" style="font-family:'SuisseIntl-Regular'; font-size:145.342px; letter-spacing:-3;">studio</text>
	
		<text transform="matrix(1 0 0 1 667.4136 368.8164)" class="st0" style="font-family:'SuisseIntl-Regular'; font-size:145.342px; letter-spacing:-4;">lab</text>
</g>
<g>
	<polygon class="st1" points="151.2,1 0,152.2 0,416.4 211.4,415.4 459,167.8 459,1 	"/>
	<g>
		<g>
			<path class="st2" d="M60.4,159.5l13.3,37.7l13.3-37.7h8.6l-18.6,49.2h-7.4l-18.6-49.2H60.4z"/>
			<path class="st2" d="M98.6,142.4h8.3v10.1h-8.3V142.4z M98.6,159.5h8.3v49.2h-8.3V159.5z"/>
			<path class="st2" d="M124.8,159.5v7.4c3.4-5.5,8.7-8.2,15.9-8.2c10.8,0,16.2,6.3,16.2,18.9v31.1h-8.3v-28.6c0-4.5-0.7-8-2.1-10.5
				c-1.4-2.5-4.3-3.7-8.6-3.7c-4.1,0-7.3,1.4-9.6,4.1c-2.3,2.7-3.4,6.7-3.4,12v26.7h-8.3v-49.2H124.8z"/>
			<path class="st2" d="M186,158.7c5.7,0,10.3,1.7,14,5.2c3.7,3.5,5.9,7.5,6.5,12.1h-8.4c-0.6-2.9-2.1-5.3-4.4-7.2
				c-2.3-1.9-5.1-2.8-8.3-2.8c-4,0-7.3,1.6-10.1,4.7c-2.7,3.1-4.1,7.6-4.1,13.4c0,5.9,1.4,10.5,4.1,13.7c2.7,3.2,6.1,4.8,10.1,4.8
				c3.4,0,6.2-1,8.6-2.9c2.4-1.9,3.9-4.3,4.5-7h8.6c-0.9,4.8-3.4,8.8-7.5,12.2c-4.1,3.4-8.9,5-14.5,5c-7,0-12.6-2.4-16.7-7.1
				c-4.1-4.8-6.2-10.9-6.2-18.6c0-7.4,2.2-13.5,6.5-18.3C173.1,161.1,178.8,158.7,186,158.7z"/>
			<path class="st2" d="M221.2,142.4v24.5c3.4-5.5,8.7-8.2,15.9-8.2c10.8,0,16.2,6.3,16.2,18.9v31.1H245v-28.6c0-4.5-0.7-8-2.1-10.5
				c-1.4-2.5-4.3-3.7-8.6-3.7c-4.1,0-7.3,1.4-9.6,4.1c-2.3,2.7-3.4,6.7-3.4,12v26.7h-8.3v-66.3H221.2z"/>
			<path class="st2" d="M305.5,186.8h-37.9c0.1,5,1.7,8.9,4.7,11.6c3,2.7,6.5,4.1,10.5,4.1c6.6,0,11.1-2.7,13.4-8.1h8.6
				c-1.2,4.5-3.7,8.1-7.6,11.1c-3.9,2.9-8.7,4.4-14.4,4.4c-7.6,0-13.5-2.4-17.7-7.2c-4.3-4.8-6.4-11-6.4-18.5
				c0-7.7,2.3-13.9,6.8-18.5c4.5-4.7,10.2-7,17.1-7c7.4,0,13.2,2.7,17.4,8.1S306,178.8,305.5,186.8z M282.6,165.8
				c-4,0-7.3,1.2-10.1,3.5c-2.8,2.3-4.3,5.8-4.7,10.4h29c-0.1-3.7-1.5-7-4-9.7C290.2,167.2,286.8,165.8,282.6,165.8z"/>
			<path class="st2" d="M94.6,244.3h-8.7c-1.3-5.4-5.2-8.1-11.6-8.1c-2.7,0-5.2,0.5-7.2,1.6c-2.1,1-3.1,2.6-3.1,4.7
				c0,1.9,0.6,3.3,1.9,4.3c1.2,1,3.1,1.8,5.6,2.3l6.9,1.4c5.2,1,9.3,2.6,12.3,4.8c3,2.2,4.5,5.5,4.5,9.8c0,4.8-1.9,8.5-5.7,11.2
				c-3.8,2.7-8.6,4.1-14.4,4.1c-6.1,0-11-1.7-14.7-5c-3.7-3.4-5.9-7.4-6.4-12.1h8.8c1.5,6.7,5.6,10.1,12.5,10.1c3.3,0,6-0.7,8.2-2
				c2.2-1.3,3.2-3.1,3.2-5.3c0-2.3-0.9-4.1-2.7-5.3c-1.8-1.2-4.2-2.2-7.3-2.8l-7.3-1.5c-4.1-0.9-7.5-2.4-10.1-4.4
				c-2.6-2-3.9-5.1-3.9-9.2c0-4.2,1.9-7.5,5.6-10s8.4-3.7,14-3.7c5.3,0,9.7,1.4,13.1,4.1C91.7,235.8,93.8,239.5,94.6,244.3z"/>
			<path class="st2" d="M105.4,229.9v-12.3h8.3v12.3h9.3v6.7h-9.3v29.2c0,2.7,0.3,4.4,0.9,5.2c0.6,0.8,2,1.2,4.3,1.2h4.2v6.9h-6
				c-4.8,0-7.9-0.8-9.4-2.4c-1.5-1.6-2.2-4.9-2.2-10v-30.2h-7.8v-6.7H105.4z"/>
			<path class="st2" d="M160.4,279.1v-7c-3.4,5.5-8.5,8.2-15.5,8.2c-10.5,0-15.7-6.3-15.7-18.9v-31.5h8.3v29c0,4.5,0.7,8,2.1,10.5
				s4.1,3.7,8.3,3.7c4,0,7.1-1.4,9.3-4.1c2.2-2.7,3.2-6.7,3.2-12v-27.1h8.3v49.2H160.4z"/>
			<path class="st2" d="M212.9,237.7v-24.9h8.3v66.3h-8.3v-7.4c-3.3,5.7-8.7,8.6-16.1,8.6c-5.9,0-10.9-2.3-14.9-6.9
				c-4.1-4.6-6.1-10.8-6.1-18.7c0-7.8,2-14,6.1-18.7c4.1-4.6,9-6.9,14.9-6.9C204.3,229.1,209.6,232,212.9,237.7z M209.1,268.5
				c2.8-3.1,4.2-7.7,4.2-13.8c0-6.1-1.4-10.7-4.2-13.8c-2.8-3.1-6.2-4.7-10.2-4.7c-4.3,0-7.8,1.6-10.3,4.9
				c-2.5,3.3-3.8,7.8-3.8,13.6c0,5.8,1.3,10.3,3.8,13.6c2.5,3.3,6,4.9,10.3,4.9C202.9,273.2,206.3,271.6,209.1,268.5z"/>
			<path class="st2" d="M231.7,212.8h8.3v10.1h-8.3V212.8z M231.7,229.9h8.3v49.2h-8.3V229.9z"/>
			<path class="st2" d="M254.2,235.7c4.7-4.4,10.2-6.6,16.5-6.6c6.3,0,11.9,2.2,16.5,6.6s7,10.7,7,19c0,8.3-2.3,14.6-7,19
				s-10.2,6.6-16.5,6.6c-6.3,0-11.9-2.2-16.5-6.6c-4.7-4.4-7-10.7-7-19C247.2,246.4,249.5,240.1,254.2,235.7z M256.1,254.7
				c0,6.2,1.4,10.7,4.2,13.8c2.8,3,6.3,4.5,10.5,4.5c4.1,0,7.6-1.6,10.5-4.7s4.3-7.6,4.3-13.6c0-6.2-1.4-10.7-4.2-13.8
				c-2.8-3-6.3-4.5-10.5-4.5s-7.7,1.5-10.5,4.4C257.5,243.8,256.1,248.4,256.1,254.7z"/>
			<path class="st2" d="M66.1,283.3v66.3h-8.3v-66.3H66.1z"/>
			<path class="st2" d="M89.6,350.8c-4.8,0-8.8-1.3-12.1-3.8c-3.2-2.5-4.8-6-4.8-10.4c0-2.8,0.7-5.2,2.2-7.2c1.5-2,3.8-3.7,6.9-5
				c3.1-1.3,6.6-2.3,10.3-3.1c3.7-0.7,8.3-1.4,13.8-2v-1.2c0-8-3.7-12-11.2-12c-3.4,0-6.1,0.9-8,2.6c-2,1.7-3,4.1-3.2,7.2h-8.6
				c0.4-5.1,2.5-9.1,6.4-12.1c3.9-3,8.3-4.5,13.4-4.5c6.8,0,11.7,1.6,14.9,4.9c3.2,3.3,4.7,8.4,4.7,15.4l-0.1,11.3
				c-0.1,8,0.4,14.2,1.3,18.6H107c-0.4-2.4-0.6-4.6-0.6-6.8C103.3,348.1,97.7,350.8,89.6,350.8z M106.6,329v-3.1
				c-8.4,0.8-14.6,2-18.6,3.5c-4.1,1.5-6.1,3.9-6.1,7c0,2.4,0.9,4.3,2.6,5.7c1.7,1.4,4,2.1,6.9,2.1c4.4,0,8-1.2,10.9-3.6
				C105.1,338.2,106.6,334.4,106.6,329z"/>
			<path class="st2" d="M123,283.3h8.3v24.9c3.3-5.7,8.7-8.6,16.1-8.6c5.9,0,10.9,2.3,14.9,6.9c4.1,4.6,6.1,10.9,6.1,18.7
				c0,7.9-2,14.1-6.1,18.7c-4.1,4.6-9,6.9-14.9,6.9c-7.4,0-12.8-2.9-16.1-8.6v7.4H123V283.3z M135.1,311.4
				c-2.8,3.1-4.2,7.7-4.2,13.8c0,6.1,1.4,10.7,4.2,13.8c2.8,3.1,6.2,4.7,10.2,4.7c4.3,0,7.8-1.6,10.3-4.9c2.5-3.3,3.8-7.8,3.8-13.6
				c0-5.8-1.3-10.3-3.8-13.6c-2.5-3.3-6-4.9-10.3-4.9C141.3,306.7,137.9,308.2,135.1,311.4z"/>
		</g>
	</g>
</g>
</svg>
